{
  "accessors": [
    {
      "bufferView": 1,
      "componentType": 5126,
      "count": 1111,
      "max": [
        2.20809006690979,
        2.20809006690979,
        6.333449840545654
      ],
      "min": [
        -2.20809006690979,
        -2.20809006690979,
        -3.4714999198913574
      ],
      "type": "VEC3"
    },
    {
      "bufferView": 1,
      "byteOffset": 13332,
      "componentType": 5126,
      "count": 1111,
      "max": [
        1.0,
        1.0,
        1.0
      ],
      "min": [
        -1.0,
        -1.0,
        -1.0
      ],
      "type": "VEC3"
    },
    {
      "bufferView": 0,
      "componentType": 5125,
      "count": 1890,
      "type": "SCALAR"
    }
  ],
  "asset": {
    "extras": {
      "author": "marcelo.medeirossilva (https://sketchfab.com/marcelo.medeirossilva)",
      "license": "CC-BY-NC-SA-4.0 (http://creativecommons.org/licenses/by-nc-sa/4.0/)",
      "source": "https://sketchfab.com/3d-models/low-poly-chess-king-640c64de51ba48c4aa341b803e243d36",
      "title": "Low Poly Chess - King"
    },
    "generator": "Sketchfab-12.66.0",
    "version": "2.0"
  },
  "bufferViews": [
    {
      "buffer": 0,
      "byteLength": 7560,
      "name": "floatBufferViews",
      "target": 34963
    },
    {
      "buffer": 0,
      "byteLength": 26664,
      "byteOffset": 7560,
      "byteStride": 12,
      "name": "floatBufferViews",
      "target": 34962
    }
  ],
  "buffers": [
    {
      "byteLength": 34224,
      "uri": "scene.bin"
    }
  ],
  "materials": [
    {
      "doubleSided": true,
      "name": "Root",
      "pbrMetallicRoughness": {
        "metallicFactor": 0.0,
        "roughnessFactor": 0.6
      }
    }
  ],
  "meshes": [
    {
      "name": "Chess_King_0",
      "primitives": [
        {
          "attributes": {
            "NORMAL": 1,
            "POSITION": 0
          },
          "indices": 2,
          "material": 0,
          "mode": 4
        }
      ]
    }
  ],
  "nodes": [
    {
      "children": [
        1
      ],
      "matrix": [
        0.20000000298023224,
        0.0,
        0.0,
        0.0,
        0.0,
        4.440892164675075e-17,
        -0.20000000298023224,
        0.0,
        0.0,
        0.20000000298023224,
        4.440892164675075e-17,
        0.0,
        0.0,
        0.0,
        0.0,
        1.0
      ],
      "name": "Sketchfab_model"
    },
    {
      "children": [
        2,
        4
      ],
      "name": "Root"
    },
    {
      "children": [
        3
      ],
      "matrix": [
        -0.29086000000000006,
        0.9551700000000001,
        -0.05519000000000001,
        0.0,
        -0.7711,
        -0.19988000000000003,
        0.6045200000000001,
        0.0,
        0.5663900000000001,
        0.21839000000000003,
        0.7946700000000001,
        0.0,
        4.076250000000001,
        1.00545,
        5.903860000000001,
        1.0
      ],
      "name": "Lamp"
    },
    {
      "name": "Lamp"
    },
    {
      "children": [
        5
      ],
      "matrix": [
        1.0,
        0.0,
        0.0,
        0.0,
        0.0,
        1.0,
        0.0,
        0.0,
        0.0,
        0.0,
        1.0,
        0.0,
        0.0,
        -0.0,
        3.4715,
        1.0
      ],
      "name": "Chess_King"
    },
    {
      "mesh": 0,
      "name": "Chess_King_0"
    }
  ],
  "scene": 0,
  "scenes": [
    {
      "name": "Sketchfab_Scene",
      "nodes": [
        0
      ]
    }
  ]
}
