{
  "accessors": [
    {
      "bufferView": 1,
      "componentType": 5126,
      "count": 1350,
      "max": [
        140.9739990234375,
        106.62000274658203,
        39.0359992980957
      ],
      "min": [
        116.08000183105469,
        83.72599792480469,
        -0.0020000000949949026
      ],
      "type": "VEC3"
    },
    {
      "bufferView": 1,
      "byteOffset": 16200,
      "componentType": 5126,
      "count": 1350,
      "max": [
        0.9804500341415405,
        0.993553638458252,
        1.0
      ],
      "min": [
        -0.9348382949829102,
        -0.9980089068412781,
        -1.0
      ],
      "type": "VEC3"
    },
    {
      "bufferView": 0,
      "componentType": 5125,
      "count": 1554,
      "type": "SCALAR"
    },
    {
      "bufferView": 1,
      "byteOffset": 32400,
      "componentType": 5126,
      "count": 581,
      "max": [
        188.83399963378906,
        81.31600189208984,
        32.00400161743164
      ],
      "min": [
        165.94200134277344,
        58.422000885009766,
        0.0
      ],
      "type": "VEC3"
    },
    {
      "bufferView": 1,
      "byteOffset": 39372,
      "componentType": 5126,
      "count": 581,
      "max": [
        0.9240223169326782,
        0.9240298867225647,
        1.0
      ],
      "min": [
        -0.9240223169326782,
        -0.9240230321884155,
        -1.0
      ],
      "type": "VEC3"
    },
    {
      "bufferView": 0,
      "byteOffset": 6216,
      "componentType": 5125,
      "count": 888,
      "type": "SCALAR"
    },
    {
      "bufferView": 1,
      "byteOffset": 46344,
      "componentType": 5126,
      "count": 573,
      "max": [
        163.57400512695313,
        81.31600189208984,
        32.00400161743164
      ],
      "min": [
        140.67999267578125,
        58.422000885009766,
        0.0
      ],
      "type": "VEC3"
    },
    {
      "bufferView": 1,
      "byteOffset": 53220,
      "componentType": 5126,
      "count": 573,
      "max": [
        0.9240296483039856,
        0.9240298867225647,
        1.0
      ],
      "min": [
        -0.9238507151603699,
        -0.9239519238471985,
        -1.0
      ],
      "type": "VEC3"
    },
    {
      "bufferView": 0,
      "byteOffset": 9768,
      "componentType": 5125,
      "count": 888,
      "type": "SCALAR"
    },
    {
      "bufferView": 1,
      "byteOffset": 60096,
      "componentType": 5126,
      "count": 593,
      "max": [
        138.77999877929688,
        81.31600189208984,
        32.00400161743164
      ],
      "min": [
        115.88600158691406,
        58.422000885009766,
        0.0
      ],
      "type": "VEC3"
    },
    {
      "bufferView": 1,
      "byteOffset": 67212,
      "componentType": 5126,
      "count": 593,
      "max": [
        0.9238507151603699,
        0.9240298867225647,
        1.0
      ],
      "min": [
        -0.9240230321884155,
        -0.9240230321884155,
        -1.0
      ],
      "type": "VEC3"
    },
    {
      "bufferView": 0,
      "byteOffset": 13320,
      "componentType": 5125,
      "count": 888,
      "type": "SCALAR"
    },
    {
      "bufferView": 1,
      "byteOffset": 74328,
      "componentType": 5126,
      "count": 619,
      "max": [
        113.62799835205078,
        81.31600189208984,
        32.00400161743164
      ],
      "min": [
        90.73400115966797,
        58.422000885009766,
        0.0
      ],
      "type": "VEC3"
    },
    {
      "bufferView": 1,
      "byteOffset": 81756,
      "componentType": 5126,
      "count": 619,
      "max": [
        0.9240297079086304,
        0.9241069555282593,
        1.0
      ],
      "min": [
        -0.9240297079086304,
        -0.9240230321884155,
        -1.0
      ],
      "type": "VEC3"
    },
    {
      "bufferView": 0,
      "byteOffset": 16872,
      "componentType": 5125,
      "count": 888,
      "type": "SCALAR"
    },
    {
      "bufferView": 1,
      "byteOffset": 89184,
      "componentType": 5126,
      "count": 581,
      "max": [
        189.13999938964844,
        131.79800415039063,
        32.00400161743164
      ],
      "min": [
        166.24600219726563,
        108.90399932861328,
        0.0
      ],
      "type": "VEC3"
    },
    {
      "bufferView": 1,
      "byteOffset": 96156,
      "componentType": 5126,
      "count": 581,
      "max": [
        0.923951268196106,
        0.9238429069519043,
        1.0
      ],
      "min": [
        -0.9238425493240356,
        -0.9238422513008118,
        -1.0
      ],
      "type": "VEC3"
    },
    {
      "bufferView": 0,
      "byteOffset": 20424,
      "componentType": 5125,
      "count": 888,
      "type": "SCALAR"
    },
    {
      "bufferView": 1,
      "byteOffset": 103128,
      "componentType": 5126,
      "count": 589,
      "max": [
        113.81400299072266,
        131.8000030517578,
        32.00400161743164
      ],
      "min": [
        90.91999816894531,
        108.90399932861328,
        0.0
      ],
      "type": "VEC3"
    },
    {
      "bufferView": 1,
      "byteOffset": 110196,
      "componentType": 5126,
      "count": 589,
      "max": [
        0.9238426685333252,
        0.9240298867225647,
        1.0
      ],
      "min": [
        -0.9240297079086304,
        -0.923842191696167,
        -1.0
      ],
      "type": "VEC3"
    },
    {
      "bufferView": 0,
      "byteOffset": 23976,
      "componentType": 5125,
      "count": 888,
      "type": "SCALAR"
    },
    {
      "bufferView": 1,
      "byteOffset": 117264,
      "componentType": 5126,
      "count": 587,
      "max": [
        139.07400512695313,
        131.79800415039063,
        32.00400161743164
      ],
      "min": [
        116.18000030517578,
        108.90399932861328,
        0.0
      ],
      "type": "VEC3"
    },
    {
      "bufferView": 1,
      "byteOffset": 124308,
      "componentType": 5126,
      "count": 587,
      "max": [
        0.9240296483039856,
        0.9238513708114624,
        1.0
      ],
      "min": [
        -0.9239519238471985,
        -0.9238513708114624,
        -1.0
      ],
      "type": "VEC3"
    },
    {
      "bufferView": 0,
      "byteOffset": 27528,
      "componentType": 5125,
      "count": 888,
      "type": "SCALAR"
    },
    {
      "bufferView": 1,
      "byteOffset": 131352,
      "componentType": 5126,
      "count": 659,
      "max": [
        138.3979949951172,
        56.178001403808594,
        48.33599853515625
      ],
      "min": [
        115.50199890136719,
        33.284000396728516,
        0.0
      ],
      "type": "VEC3"
    },
    {
      "bufferView": 1,
      "byteOffset": 139260,
      "componentType": 5126,
      "count": 659,
      "max": [
        0.9996263384819031,
        0.9570443034172058,
        1.0
      ],
      "min": [
        -0.9965294599533081,
        -0.9570438265800476,
        -1.0
      ],
      "type": "VEC3"
    },
    {
      "bufferView": 0,
      "byteOffset": 31080,
      "componentType": 5125,
      "count": 906,
      "type": "SCALAR"
    },
    {
      "bufferView": 1,
      "byteOffset": 147168,
      "componentType": 5126,
      "count": 1330,
      "max": [
        164.2100067138672,
        56.13600158691406,
        39.0359992980957
      ],
      "min": [
        139.31199645996094,
        33.242000579833984,
        -0.0020000000949949026
      ],
      "type": "VEC3"
    },
    {
      "bufferView": 1,
      "byteOffset": 163128,
      "componentType": 5126,
      "count": 1330,
      "max": [
        0.9349619746208191,
        0.993478536605835,
        1.0
      ],
      "min": [
        -0.9804505109786987,
        -0.9979342818260193,
        -1.0
      ],
      "type": "VEC3"
    },
    {
      "bufferView": 0,
      "byteOffset": 34704,
      "componentType": 5125,
      "count": 1554,
      "type": "SCALAR"
    },
    {
      "bufferView": 1,
      "byteOffset": 179088,
      "componentType": 5126,
      "count": 611,
      "max": [
        113.9260025024414,
        106.57599639892578,
        41.582000732421875
      ],
      "min": [
        91.03399658203125,
        83.68199920654297,
        0.0
      ],
      "type": "VEC3"
    },
    {
      "bufferView": 1,
      "byteOffset": 186420,
      "componentType": 5126,
      "count": 611,
      "max": [
        0.9240473508834839,
        0.9240472912788391,
        1.0
      ],
      "min": [
        -0.9240450859069824,
        -0.9240472912788391,
        -1.0
      ],
      "type": "VEC3"
    },
    {
      "bufferView": 0,
      "byteOffset": 40920,
      "componentType": 5125,
      "count": 924,
      "type": "SCALAR"
    },
    {
      "bufferView": 1,
      "byteOffset": 193752,
      "componentType": 5126,
      "count": 968,
      "max": [
        112.61399841308594,
        55.119998931884766,
        68.09400177001953
      ],
      "min": [
        91.44999694824219,
        33.95600128173828,
        -0.0020000000949949026
      ],
      "type": "VEC3"
    },
    {
      "bufferView": 1,
      "byteOffset": 205368,
      "componentType": 5126,
      "count": 968,
      "max": [
        1.0,
        1.0,
        0.9999980926513672
      ],
      "min": [
        -1.0,
        -1.0,
        -1.0
      ],
      "type": "VEC3"
    },
    {
      "bufferView": 0,
      "byteOffset": 44616,
      "componentType": 5125,
      "count": 1338,
      "type": "SCALAR"
    },
    {
      "bufferView": 1,
      "byteOffset": 216984,
      "componentType": 5126,
      "count": 645,
      "max": [
        164.1820068359375,
        106.66200256347656,
        48.33599853515625
      ],
      "min": [
        141.28799438476563,
        83.76799774169922,
        0.0
      ],
      "type": "VEC3"
    },
    {
      "bufferView": 1,
      "byteOffset": 224724,
      "componentType": 5126,
      "count": 645,
      "max": [
        0.9996163845062256,
        0.9568967223167419,
        1.0
      ],
      "min": [
        -0.9965294599533081,
        -0.9568391442298889,
        -1.0
      ],
      "type": "VEC3"
    },
    {
      "bufferView": 0,
      "byteOffset": 49968,
      "componentType": 5125,
      "count": 906,
      "type": "SCALAR"
    },
    {
      "bufferView": 1,
      "byteOffset": 232464,
      "componentType": 5126,
      "count": 575,
      "max": [
        164.2259979248047,
        131.79800415039063,
        32.00400161743164
      ],
      "min": [
        141.33399963378906,
        108.90399932861328,
        0.0
      ],
      "type": "VEC3"
    },
    {
      "bufferView": 1,
      "byteOffset": 239364,
      "componentType": 5126,
      "count": 575,
      "max": [
        0.923951268196106,
        0.9238513708114624,
        1.0
      ],
      "min": [
        -0.923951268196106,
        -0.9238513708114624,
        -1.0
      ],
      "type": "VEC3"
    },
    {
      "bufferView": 0,
      "byteOffset": 53592,
      "componentType": 5125,
      "count": 888,
      "type": "SCALAR"
    },
    {
      "bufferView": 1,
      "byteOffset": 246264,
      "componentType": 5126,
      "count": 630,
      "max": [
        188.45799255371094,
        56.09400177001953,
        41.582000732421875
      ],
      "min": [
        165.56199645996094,
        33.20000076293945,
        0.0
      ],
      "type": "VEC3"
    },
    {
      "bufferView": 1,
      "byteOffset": 253824,
      "componentType": 5126,
      "count": 630,
      "max": [
        0.9240487217903137,
        0.9242249131202698,
        1.0
      ],
      "min": [
        -0.9244781136512756,
        -0.9242249131202698,
        -1.0
      ],
      "type": "VEC3"
    },
    {
      "bufferView": 0,
      "byteOffset": 57144,
      "componentType": 5125,
      "count": 924,
      "type": "SCALAR"
    },
    {
      "bufferView": 1,
      "byteOffset": 261384,
      "componentType": 5126,
      "count": 1259,
      "max": [
        189.26400756835938,
        106.74600219726563,
        63.59600067138672
      ],
      "min": [
        166.3699951171875,
        83.85399627685547,
        0.0
      ],
      "type": "VEC3"
    },
    {
      "bufferView": 1,
      "byteOffset": 276492,
      "componentType": 5126,
      "count": 1259,
      "max": [
        0.9665482044219971,
        0.9665812849998474,
        0.9999980926513672
      ],
      "min": [
        -0.966124951839447,
        -0.9664570689201355,
        -1.0
      ],
      "type": "VEC3"
    },
    {
      "bufferView": 0,
      "byteOffset": 60840,
      "componentType": 5125,
      "count": 1578,
      "type": "SCALAR"
    }
  ],
  "asset": {
    "extras": {
      "author": "sadamkh (https://sketchfab.com/sadamkh)",
      "license": "CC-BY-NC-ND-4.0 (http://creativecommons.org/licenses/by-nc-nd/4.0/)",
      "source": "https://sketchfab.com/3d-models/chess-set-db3dc27757aa4d219ab3b4ac61cc0017",
      "title": "chess set."
    },
    "generator": "Sketchfab-12.68.0",
    "version": "2.0"
  },
  "bufferViews": [
    {
      "buffer": 0,
      "byteLength": 67152,
      "name": "floatBufferViews",
      "target": 34963
    },
    {
      "buffer": 0,
      "byteLength": 291600,
      "byteOffset": 67152,
      "byteStride": 12,
      "name": "floatBufferViews",
      "target": 34962
    }
  ],
  "buffers": [
    {
      "byteLength": 358752,
      "uri": "scene.bin"
    }
  ],
  "materials": [
    {
      "doubleSided": true,
      "name": "DefaultMaterial_0",
      "pbrMetallicRoughness": {
        "baseColorFactor": [
          0.6,
          0.6,
          0.6,
          1.0
        ],
        "metallicFactor": 0.0,
        "roughnessFactor": 0.6
      }
    }
  ],
  "meshes": [
    {
      "name": "Object_0",
      "primitives": [
        {
          "attributes": {
            "NORMAL": 1,
            "POSITION": 0
          },
          "indices": 2,
          "material": 0,
          "mode": 4
        }
      ]
    },
    {
      "name": "Object_1",
      "primitives": [
        {
          "attributes": {
            "NORMAL": 4,
            "POSITION": 3
          },
          "indices": 5,
          "material": 0,
          "mode": 4
        }
      ]
    },
    {
      "name": "Object_2",
      "primitives": [
        {
          "attributes": {
            "NORMAL": 7,
            "POSITION": 6
          },
          "indices": 8,
          "material": 0,
          "mode": 4
        }
      ]
    },
    {
      "name": "Object_3",
      "primitives": [
        {
          "attributes": {
            "NORMAL": 10,
            "POSITION": 9
          },
          "indices": 11,
          "material": 0,
          "mode": 4
        }
      ]
    },
    {
      "name": "Object_4",
      "primitives": [
        {
          "attributes": {
            "NORMAL": 13,
            "POSITION": 12
          },
          "indices": 14,
          "material": 0,
          "mode": 4
        }
      ]
    },
    {
      "name": "Object_5",
      "primitives": [
        {
          "attributes": {
            "NORMAL": 16,
            "POSITION": 15
          },
          "indices": 17,
          "material": 0,
          "mode": 4
        }
      ]
    },
    {
      "name": "Object_6",
      "primitives": [
        {
          "attributes": {
            "NORMAL": 19,
            "POSITION": 18
          },
          "indices": 20,
          "material": 0,
          "mode": 4
        }
      ]
    },
    {
      "name": "Object_7",
      "primitives": [
        {
          "attributes": {
            "NORMAL": 22,
            "POSITION": 21
          },
          "indices": 23,
          "material": 0,
          "mode": 4
        }
      ]
    },
    {
      "name": "Object_8",
      "primitives": [
        {
          "attributes": {
            "NORMAL": 25,
            "POSITION": 24
          },
          "indices": 26,
          "material": 0,
          "mode": 4
        }
      ]
    },
    {
      "name": "Object_9",
      "primitives": [
        {
          "attributes": {
            "NORMAL": 28,
            "POSITION": 27
          },
          "indices": 29,
          "material": 0,
          "mode": 4
        }
      ]
    },
    {
      "name": "Object_10",
      "primitives": [
        {
          "attributes": {
            "NORMAL": 31,
            "POSITION": 30
          },
          "indices": 32,
          "material": 0,
          "mode": 4
        }
      ]
    },
    {
      "name": "Object_11",
      "primitives": [
        {
          "attributes": {
            "NORMAL": 34,
            "POSITION": 33
          },
          "indices": 35,
          "material": 0,
          "mode": 4
        }
      ]
    },
    {
      "name": "Object_12",
      "primitives": [
        {
          "attributes": {
            "NORMAL": 37,
            "POSITION": 36
          },
          "indices": 38,
          "material": 0,
          "mode": 4
        }
      ]
    },
    {
      "name": "Object_13",
      "primitives": [
        {
          "attributes": {
            "NORMAL": 40,
            "POSITION": 39
          },
          "indices": 41,
          "material": 0,
          "mode": 4
        }
      ]
    },
    {
      "name": "Object_14",
      "primitives": [
        {
          "attributes": {
            "NORMAL": 43,
            "POSITION": 42
          },
          "indices": 44,
          "material": 0,
          "mode": 4
        }
      ]
    },
    {
      "name": "Object_15",
      "primitives": [
        {
          "attributes": {
            "NORMAL": 46,
            "POSITION": 45
          },
          "indices": 47,
          "material": 0,
          "mode": 4
        }
      ]
    }
  ],
  "nodes": [
    {
      "children": [
        1
      ],
      "matrix": [
        1.0,
        0.0,
        0.0,
        0.0,
        0.0,
        2.220446049250313e-16,
        -1.0,
        0.0,
        0.0,
        1.0,
        2.220446049250313e-16,
        0.0,
        0.0,
        0.0,
        0.0,
        1.0
      ],
      "name": "Sketchfab_model"
    },
    {
      "children": [
        2,
        4,
        6,
        8,
        10,
        12,
        14,
        16,
        18,
        20,
        22,
        24,
        26,
        28,
        30,
        32
      ],
      "name": "3MF"
    },
    {
      "children": [
        3
      ],
      "name": "17"
    },
    {
      "mesh": 0,
      "name": "Object_3"
    },
    {
      "children": [
        5
      ],
      "name": "16"
    },
    {
      "mesh": 1,
      "name": "Object_5"
    },
    {
      "children": [
        7
      ],
      "name": "15"
    },
    {
      "mesh": 2,
      "name": "Object_7"
    },
    {
      "children": [
        9
      ],
      "name": "14"
    },
    {
      "mesh": 3,
      "name": "Object_9"
    },
    {
      "children": [
        11
      ],
      "name": "13"
    },
    {
      "mesh": 4,
      "name": "Object_11"
    },
    {
      "children": [
        13
      ],
      "name": "12"
    },
    {
      "mesh": 5,
      "name": "Object_13"
    },
    {
      "children": [
        15
      ],
      "name": "11"
    },
    {
      "mesh": 6,
      "name": "Object_15"
    },
    {
      "children": [
        17
      ],
      "name": "10"
    },
    {
      "mesh": 7,
      "name": "Object_17"
    },
    {
      "children": [
        19
      ],
      "name": "9"
    },
    {
      "mesh": 8,
      "name": "Object_19"
    },
    {
      "children": [
        21
      ],
      "name": "8"
    },
    {
      "mesh": 9,
      "name": "Object_21"
    },
    {
      "children": [
        23
      ],
      "name": "7"
    },
    {
      "mesh": 10,
      "name": "Object_23"
    },
    {
      "children": [
        25
      ],
      "name": "6"
    },
    {
      "mesh": 11,
      "name": "Object_25"
    },
    {
      "children": [
        27
      ],
      "name": "5"
    },
    {
      "mesh": 12,
      "name": "Object_27"
    },
    {
      "children": [
        29
      ],
      "name": "4"
    },
    {
      "mesh": 13,
      "name": "Object_29"
    },
    {
      "children": [
        31
      ],
      "name": "3"
    },
    {
      "mesh": 14,
      "name": "Object_31"
    },
    {
      "children": [
        33
      ],
      "name": "2"
    },
    {
      "mesh": 15,
      "name": "Object_33"
    }
  ],
  "scene": 0,
  "scenes": [
    {
      "name": "Sketchfab_Scene",
      "nodes": [
        0
      ]
    }
  ]
}
