{
  "accessors": [
    {
      "bufferView": 1,
      "componentType": 5126,
      "count": 16164,
      "max": [
        1.853135585784912,
        1.853135585784912,
        7.050652980804443
      ],
      "min": [
        -1.853135585784912,
        -1.853135585784912,
        -0.3892638683319092
      ],
      "type": "VEC3"
    },
    {
      "bufferView": 1,
      "byteOffset": 193968,
      "componentType": 5126,
      "count": 16164,
      "max": [
        1.0,
        1.0,
        1.0
      ],
      "min": [
        -1.0,
        -1.0,
        -1.0
      ],
      "type": "VEC3"
    },
    {
      "bufferView": 0,
      "componentType": 5125,
      "count": 95232,
      "type": "SCALAR"
    }
  ],
  "asset": {
    "extras": {
      "author": "sylvernaut (https://sketchfab.com/sylvernaut)",
      "license": "CC-BY-4.0 (http://creativecommons.org/licenses/by/4.0/)",
      "source": "https://sketchfab.com/3d-models/chess-pawn-2b61573abd0a4599999e1ca0dffc4785",
      "title": "Chess Pawn"
    },
    "generator": "Sketchfab-12.67.0",
    "version": "2.0"
  },
  "bufferViews": [
    {
      "buffer": 0,
      "byteLength": 380928,
      "name": "floatBufferViews",
      "target": 34963
    },
    {
      "buffer": 0,
      "byteLength": 387936,
      "byteOffset": 380928,
      "byteStride": 12,
      "name": "floatBufferViews",
      "target": 34962
    }
  ],
  "buffers": [
    {
      "byteLength": 768864,
      "uri": "scene.bin"
    }
  ],
  "materials": [
    {
      "doubleSided": true,
      "name": "Scene_-_Root",
      "pbrMetallicRoughness": {
        "baseColorFactor": [
          0.0,
          0.0,
          0.0,
          1.0
        ],
        "metallicFactor": 0.41634908536585363,
        "roughnessFactor": 0.21779725609756095
      }
    }
  ],
  "meshes": [
    {
      "name": "Object_0",
      "primitives": [
        {
          "attributes": {
            "NORMAL": 1,
            "POSITION": 0
          },
          "indices": 2,
          "material": 0,
          "mode": 4
        }
      ]
    }
  ],
  "nodes": [
    {
      "children": [
        1
      ],
      "matrix": [
        0.2122507244348526,
        0.0,
        0.0,
        0.0,
        0.0,
        4.7129128252188535e-17,
        -0.2122507244348526,
        0.0,
        0.0,
        0.2122507244348526,
        4.7129128252188535e-17,
        0.0,
        0.0,
        0.0,
        0.0,
        1.0
      ],
      "name": "Sketchfab_model"
    },
    {
      "children": [
        2
      ],
      "name": "Pawn.stl.cleaner.materialmerger.gles"
    },
    {
      "mesh": 0,
      "name": "Object_2"
    }
  ],
  "scene": 0,
  "scenes": [
    {
      "name": "Sketchfab_Scene",
      "nodes": [
        0
      ]
    }
  ]
}
