{
  "accessors": [
    {
      "bufferView": 2,
      "componentType": 5126,
      "count": 1928,
      "max": [
        0.14539635181427002,
        2.527557373046875,
        4.046600818634033
      ],
      "min": [
        -0.8681204915046692,
        0.3454420566558838,
        2.9255545139312744
      ],
      "type": "VEC3"
    },
    {
      "bufferView": 2,
      "byteOffset": 23136,
      "componentType": 5126,
      "count": 1928,
      "max": [
        0.999974250793457,
        1.0,
        0.9984287619590759
      ],
      "min": [
        -0.9999998211860657,
        -1.0,
        -0.9984287619590759
      ],
      "type": "VEC3"
    },
    {
      "bufferView": 1,
      "componentType": 5126,
      "count": 1928,
      "max": [
        1.0,
        1.0
      ],
      "min": [
        0.0,
        -7.450580596923828e-08
      ],
      "type": "VEC2"
    },
    {
      "bufferView": 0,
      "componentType": 5125,
      "count": 5328,
      "type": "SCALAR"
    }
  ],
  "asset": {
    "extras": {
      "author": "Mohammed.Adnan (https://sketchfab.com/Mohammed.Adnan)",
      "license": "CC-BY-4.0 (http://creativecommons.org/licenses/by/4.0/)",
      "source": "https://sketchfab.com/3d-models/white-bishop-6ddabd768ccf4374b3864a5233e2aec5",
      "title": "White Bishop"
    },
    "generator": "Sketchfab-12.68.0",
    "version": "2.0"
  },
  "bufferViews": [
    {
      "buffer": 0,
      "byteLength": 21312,
      "name": "floatBufferViews",
      "target": 34963
    },
    {
      "buffer": 0,
      "byteLength": 15424,
      "byteOffset": 21312,
      "byteStride": 8,
      "name": "floatBufferViews",
      "target": 34962
    },
    {
      "buffer": 0,
      "byteLength": 46272,
      "byteOffset": 36736,
      "byteStride": 12,
      "name": "floatBufferViews",
      "target": 34962
    }
  ],
  "buffers": [
    {
      "byteLength": 83008,
      "uri": "scene.bin"
    }
  ],
  "materials": [
    {
      "doubleSided": true,
      "name": "blinn5",
      "pbrMetallicRoughness": {
        "baseColorFactor": [
          1.0,
          0.983434,
          0.513,
          1.0
        ],
        "metallicFactor": 0.0,
        "roughnessFactor": 0.9207483816249483
      }
    }
  ],
  "meshes": [
    {
      "name": "White_Bishop_blinn5_0",
      "primitives": [
        {
          "attributes": {
            "NORMAL": 1,
            "POSITION": 0,
            "TEXCOORD_0": 2
          },
          "indices": 3,
          "material": 0,
          "mode": 4
        }
      ]
    }
  ],
  "nodes": [
    {
      "children": [
        1
      ],
      "matrix": [
        1.0,
        0.0,
        0.0,
        0.0,
        0.0,
        2.220446049250313e-16,
        -1.0,
        0.0,
        0.0,
        1.0,
        2.220446049250313e-16,
        0.0,
        0.0,
        0.0,
        0.0,
        1.0
      ],
      "name": "Sketchfab_model"
    },
    {
      "children": [
        2
      ],
      "matrix": [
        1.0,
        0.0,
        0.0,
        0.0,
        0.0,
        0.0,
        1.0,
        0.0,
        0.0,
        -1.0,
        0.0,
        0.0,
        0.0,
        0.0,
        0.0,
        1.0
      ],
      "name": "f61fb07425ff4a76aca1e141f9d07e0b.fbx"
    },
    {
      "children": [
        3
      ],
      "name": "RootNode"
    },
    {
      "children": [
        4
      ],
      "matrix": [
        1.561363935470581,
        0.0,
        0.0,
        0.0,
        0.0,
        1.561363935470581,
        0.0,
        0.0,
        0.0,
        0.0,
        1.561363935470581,
        0.0,
        4.238306045532227,
        1.3888647556304932,
        -22.682170867919922,
        1.0
      ],
      "name": "White_Bishop"
    },
    {
      "mesh": 0,
      "name": "White_Bishop_blinn5_0"
    }
  ],
  "scene": 0,
  "scenes": [
    {
      "name": "Sketchfab_Scene",
      "nodes": [
        0
      ]
    }
  ]
}
