{
  "accessors": [
    {
      "bufferView": 2,
      "componentType": 5126,
      "count": 10907,
      "max": [
        200.9409637451172,
        408.6790466308594,
        174.28463745117188
      ],
      "min": [
        -200.9409637451172,
        -408.6790466308594,
        -174.28463745117188
      ],
      "type": "VEC3"
    },
    {
      "bufferView": 2,
      "byteOffset": 130884,
      "componentType": 5126,
      "count": 10907,
      "max": [
        0.9999818801879883,
        1.0,
        0.9999954104423523
      ],
      "min": [
        -0.9999787211418152,
        -1.0,
        -0.9999954104423523
      ],
      "type": "VEC3"
    },
    {
      "bufferView": 3,
      "componentType": 5126,
      "count": 10907,
      "max": [
        1.0,
        0.27754369378089905,
        1.0,
        1.0
      ],
      "min": [
        -1.0,
        -0.27733486890792847,
        -0.9999855160713196,
        -1.0
      ],
      "type": "VEC4"
    },
    {
      "bufferView": 1,
      "componentType": 5126,
      "count": 10907,
      "max": [
        1.0,
        1.0
      ],
      "min": [
        0.0,
        0.0
      ],
      "type": "VEC2"
    },
    {
      "bufferView": 1,
      "byteOffset": 87256,
      "componentType": 5126,
      "count": 10907,
      "max": [
        1.0,
        1.0
      ],
      "min": [
        0.0,
        0.0
      ],
      "type": "VEC2"
    },
    {
      "bufferView": 1,
      "byteOffset": 174512,
      "componentType": 5126,
      "count": 10907,
      "max": [
        1.4851150512695313,
        2.5433950424194336
      ],
      "min": [
        -0.4851149916648865,
        -1.468703269958496
      ],
      "type": "VEC2"
    },
    {
      "bufferView": 0,
      "componentType": 5125,
      "count": 54102,
      "type": "SCALAR"
    }
  ],
  "asset": {
    "extras": {
      "author": "dzukaev27 (https://sketchfab.com/dzukaev27)",
      "license": "CC-BY-4.0 (http://creativecommons.org/licenses/by/4.0/)",
      "source": "https://sketchfab.com/3d-models/bishop-chess-68e7b44445bb42b591afcd046654c5fe",
      "title": "Bishop Chess"
    },
    "generator": "Sketchfab-12.82.3",
    "version": "2.0"
  },
  "bufferViews": [
    {
      "buffer": 0,
      "byteLength": 216408,
      "name": "floatBufferViews",
      "target": 34963
    },
    {
      "buffer": 0,
      "byteLength": 261768,
      "byteOffset": 216408,
      "byteStride": 8,
      "name": "floatBufferViews",
      "target": 34962
    },
    {
      "buffer": 0,
      "byteLength": 261768,
      "byteOffset": 478176,
      "byteStride": 12,
      "name": "floatBufferViews",
      "target": 34962
    },
    {
      "buffer": 0,
      "byteLength": 174512,
      "byteOffset": 739944,
      "byteStride": 16,
      "name": "floatBufferViews",
      "target": 34962
    }
  ],
  "buffers": [
    {
      "byteLength": 914456,
      "uri": "scene.bin"
    }
  ],
  "images": [
    {
      "uri": "textures/material_baseColor.jpeg"
    },
    {
      "uri": "textures/material_normal.png"
    }
  ],
  "materials": [
    {
      "doubleSided": true,
      "name": "material",
      "normalTexture": {
        "index": 1,
        "texCoord": 1
      },
      "pbrMetallicRoughness": {
        "baseColorTexture": {
          "index": 0
        },
        "metallicFactor": 0.0,
        "roughnessFactor": 0.9524317153998911
      }
    }
  ],
  "meshes": [
    {
      "name": "bishop_Mat_0",
      "primitives": [
        {
          "attributes": {
            "NORMAL": 1,
            "POSITION": 0,
            "TANGENT": 2,
            "TEXCOORD_0": 3,
            "TEXCOORD_1": 4,
            "TEXCOORD_2": 5
          },
          "indices": 6,
          "material": 0,
          "mode": 4
        }
      ]
    }
  ],
  "nodes": [
    {
      "children": [
        1
      ],
      "matrix": [
        1.0,
        0.0,
        0.0,
        0.0,
        0.0,
        2.220446049250313e-16,
        -1.0,
        0.0,
        0.0,
        1.0,
        2.220446049250313e-16,
        0.0,
        0.0,
        0.0,
        0.0,
        1.0
      ],
      "name": "Sketchfab_model"
    },
    {
      "children": [
        2
      ],
      "matrix": [
        0.009999999776482582,
        0.0,
        0.0,
        0.0,
        0.0,
        0.0,
        0.009999999776482582,
        0.0,
        0.0,
        -0.009999999776482582,
        0.0,
        0.0,
        0.0,
        0.0,
        0.0,
        1.0
      ],
      "name": "bishop.fbx"
    },
    {
      "children": [
        3,
        5
      ],
      "name": "RootNode"
    },
    {
      "children": [
        4
      ],
      "matrix": [
        -0.9560075713196303,
        -0.20846362529045648,
        -0.2063793606693794,
        0.0,
        -0.20376959759339514,
        0.9780301206664139,
        -0.04398902324291439,
        0.0,
        0.21101534227673457,
        2.3592239273284576e-16,
        -0.9774827493740401,
        0.0,
        1814.7882080078125,
        759.2684936523438,
        478.3560791015625,
        1.0
      ],
      "name": "CINEMA_4D_Editor"
    },
    {
      "name": "Object_4"
    },
    {
      "children": [
        6
      ],
      "matrix": [
        1.0,
        0.0,
        0.0,
        0.0,
        0.0,
        1.0,
        0.0,
        0.0,
        0.0,
        0.0,
        1.0,
        0.0,
        -11.855192184448242,
        408.6790466308594,
        2.842170943040401e-14,
        1.0
      ],
      "name": "bishop"
    },
    {
      "mesh": 0,
      "name": "bishop_Mat_0"
    }
  ],
  "samplers": [
    {
      "magFilter": 9729,
      "minFilter": 9987,
      "wrapS": 10497,
      "wrapT": 10497
    }
  ],
  "scene": 0,
  "scenes": [
    {
      "name": "Sketchfab_Scene",
      "nodes": [
        0
      ]
    }
  ],
  "textures": [
    {
      "sampler": 0,
      "source": 0
    },
    {
      "sampler": 0,
      "source": 1
    }
  ]
}
